<svg width="210" height="66" viewBox="0 0 210 66" fill="none" xmlns="http://www.w3.org/2000/svg">
<path d="M110.677 16.4893C110.677 18.8543 108.773 20.7588 106.411 20.7588C104.049 20.7588 102.148 18.8543 102.148 16.4893C102.148 14.1242 103.985 12.2198 106.411 12.2198C108.84 12.2854 110.677 14.1905 110.677 16.4893ZM93.0942 25.0952V26.1465C93.0942 26.1465 91.0612 23.5176 86.7311 23.5176C79.5809 23.5176 74.0036 28.9702 74.0036 36.5242C74.0036 44.0132 79.5154 49.5308 86.7311 49.5308C91.1267 49.5308 93.0942 46.8376 93.0942 46.8376V47.9539C93.0942 48.4795 93.4887 48.8726 94.013 48.8726H99.3262V24.1725H94.013C93.4887 24.1745 93.0942 24.6351 93.0942 25.0952ZM93.0942 40.9256C92.1111 42.3713 90.1424 43.6194 87.781 43.6194C83.5827 43.6194 80.3674 40.9918 80.3674 36.5242C80.3674 32.0572 83.5827 29.4296 87.781 29.4296C90.0775 29.4296 92.1767 30.7434 93.0942 32.1228V40.9256ZM103.263 24.1745H109.561V48.8745H103.263V24.1745ZM197.339 23.5169C193.009 23.5169 190.975 26.1458 190.975 26.1458V12.2854H184.677V48.8745H189.992C190.517 48.8745 190.91 48.4145 190.91 47.9545V46.8383C190.91 46.8383 192.944 49.5315 197.273 49.5315C204.424 49.5315 210 44.0151 210 36.5261C210 29.0372 204.424 23.5169 197.339 23.5169ZM196.289 43.5531C193.861 43.5531 191.959 42.3063 190.975 40.8599V32.0572C191.959 30.7434 194.059 29.364 196.289 29.364C200.488 29.364 203.702 31.9915 203.702 36.4585C203.702 40.9256 200.489 43.5531 196.289 43.5531ZM181.398 34.226V48.9402H175.099V34.9479C175.099 30.8759 173.787 29.2327 170.247 29.2327C168.345 29.2327 166.376 30.2184 165.128 31.6641V48.8752H158.831V24.1751H163.815C164.34 24.1751 164.734 24.6351 164.734 25.0952V26.1465C166.571 24.2407 168.998 23.5176 171.425 23.5176C174.181 23.5176 176.477 24.307 178.314 25.8833C180.544 27.7227 181.398 30.0872 181.398 34.226ZM143.543 23.5169C139.215 23.5169 137.18 26.1458 137.18 26.1458V12.2854H130.883V48.8745H136.196C136.721 48.8745 137.115 48.4145 137.115 47.9545V46.8383C137.115 46.8383 139.149 49.5315 143.478 49.5315C150.629 49.5315 156.205 44.0151 156.205 36.5261C156.271 29.0365 150.695 23.5169 143.543 23.5169ZM142.493 43.5531C140.067 43.5531 138.165 42.3063 137.18 40.8599V32.0572C138.165 30.7434 140.264 29.364 142.493 29.364C146.693 29.364 149.907 31.9915 149.907 36.4585C149.907 40.9256 146.693 43.5531 142.493 43.5531ZM125.437 23.5169C127.339 23.5169 128.323 23.8463 128.323 23.8463V29.6921C128.323 29.6921 123.075 27.9183 119.796 31.6634V48.9395H113.497V24.1745H118.811C119.336 24.1745 119.729 24.6345 119.729 25.0945V26.1458C120.911 24.7657 123.47 23.5169 125.437 23.5169ZM60.031 46.6407C59.7033 45.8526 59.3749 44.9988 59.0473 44.2757C58.5216 43.0938 57.9967 41.9762 57.5386 40.9256L57.473 40.8599C52.9457 31.0059 48.0919 21.0219 42.9741 11.1692L42.7775 10.7741C42.2392 9.75199 41.7146 8.7227 41.2039 7.68651C40.5472 6.50331 39.8918 5.25646 38.8419 4.07326C36.7427 1.44569 33.7247 0 30.5107 0C27.2299 0 24.2781 1.4457 22.114 3.94137C21.1297 5.12325 20.4074 6.37142 19.752 7.55461C19.24 8.59016 18.7155 9.61942 18.1785 10.6422L17.9812 11.0372C12.9296 20.89 8.00962 30.8746 3.48292 40.728L3.41673 40.8586C2.95797 41.9112 2.43235 43.0275 1.90739 44.2087C1.5797 44.9319 1.25201 45.72 0.924323 46.5738C0.0710196 49.0038 -0.1918 51.3033 0.1372 53.669C0.858772 58.5961 4.13829 62.733 8.66565 64.5737C10.3716 65.2969 12.1431 65.625 13.9795 65.625C14.5044 65.625 15.1598 65.5594 15.6854 65.4931C17.8508 65.2306 20.081 64.5087 22.2464 63.2606C24.9361 61.7492 27.4947 59.5824 30.381 56.4292C33.2673 59.5824 35.8914 61.7492 38.5155 63.2606C40.6816 64.5087 42.9112 65.2306 45.0759 65.4931C45.6008 65.56 46.2575 65.625 46.7825 65.625C48.6195 65.625 50.4559 65.2969 52.0957 64.5737C56.6885 62.733 59.9025 58.5304 60.6247 53.669C61.1458 51.3702 60.8836 49.0721 60.031 46.6407ZM30.4446 50.0564C26.9016 45.5894 24.6051 41.3856 23.8187 37.8393C23.491 36.328 23.4248 35.0142 23.6221 33.8316C23.7525 32.7803 24.147 31.8603 24.672 31.0722C25.9185 29.2997 28.0177 28.1821 30.4452 28.1821C32.8734 28.1821 35.0381 29.2334 36.2191 31.0722C36.7441 31.8603 37.1373 32.781 37.2697 33.8316C37.4656 35.0148 37.4001 36.3936 37.0724 37.8393C36.2827 41.32 33.9862 45.5245 30.4446 50.0564ZM56.6191 53.144C56.1603 56.5598 53.8639 59.5167 50.6499 60.8305C49.0757 61.4867 47.369 61.6843 45.6644 61.4867C44.0247 61.2892 42.3836 60.7636 40.6789 59.7792C38.317 58.4641 35.9556 56.4291 33.1998 53.4065C37.5292 48.0864 40.1533 43.2244 41.1377 38.8899C41.5971 36.853 41.6633 35.0142 41.4654 33.3053C41.2039 31.6634 40.6127 30.1521 39.6946 28.8383C37.6596 25.8813 34.2477 24.1745 30.4439 24.1745C26.6401 24.1745 23.2282 25.9483 21.1945 28.8383C20.2763 30.1521 19.6852 31.6634 19.423 33.3053C19.1609 35.0142 19.2258 36.9186 19.7507 38.8899C20.7344 43.2244 23.4241 48.1514 27.688 53.4722C24.9984 56.4941 22.5708 58.5311 20.2088 59.8449C18.5029 60.8305 16.8638 61.3562 15.224 61.5524C13.4532 61.7499 11.7466 61.4868 10.2379 60.8962C7.02393 59.5824 4.72748 56.6254 4.26872 53.2097C4.07211 51.5677 4.20253 49.9258 4.85922 48.0864C5.05517 47.4289 5.38417 46.7726 5.71186 45.9845C6.17128 44.9332 6.69493 43.8156 7.22054 42.6994L7.28675 42.5688C11.8128 32.7803 16.6672 22.7957 21.7188 13.0742L21.9154 12.6792C22.4411 11.6948 22.966 10.6435 23.4903 9.65784C24.0153 8.60655 24.6051 7.62088 25.3273 6.76646C26.705 5.19149 28.5413 4.33641 30.5756 4.33641C32.6099 4.33641 34.4463 5.19149 35.8239 6.76646C36.5461 7.62285 37.136 8.60852 37.6609 9.65784C38.1865 10.6435 38.7115 11.6948 39.2351 12.6792L39.4324 13.0742C44.407 22.8361 49.197 32.6913 53.7996 42.6344V42.7C54.3252 43.7526 54.784 44.9339 55.309 45.9865C55.6367 46.7733 55.965 47.4295 56.1616 48.0871C56.6853 49.7933 56.8819 51.4365 56.6191 53.144Z" fill="#C6C6C6"/>
</svg>
