<svg width="210" height="67" viewBox="0 0 210 67" fill="none" xmlns="http://www.w3.org/2000/svg">
<path d="M40.4808 28.6769H22.8192C22.3637 28.6769 21.9938 29.1038 21.9938 29.6292V39.5864C21.9938 40.1117 22.3637 40.5392 22.8192 40.5392H29.7091V52.9101C29.7091 52.9101 28.162 53.5182 23.8849 53.5182C18.8389 53.5182 11.7897 51.3921 11.7897 33.5185C11.7897 15.6408 19.1299 13.2887 26.0211 13.2887C31.9862 13.2887 34.556 14.4998 36.1911 15.0832C36.7048 15.2649 37.1801 14.6749 37.1801 14.1491L39.1504 4.52846C39.1504 4.28269 39.0782 3.98646 38.8349 3.78511C38.171 3.23908 34.1197 0.625 23.8849 0.625C12.0943 0.625 0 6.40928 0 34.2154C0 62.0226 13.8471 66.1662 25.5156 66.1662C35.177 66.1662 41.038 61.4054 41.038 61.4054C41.2795 61.2515 41.3058 60.8624 41.3058 60.6837V29.6292C41.3058 29.1038 40.9364 28.6769 40.4808 28.6769ZM131.453 4.10556C131.453 3.57568 131.089 3.14824 130.634 3.14824H120.689C120.235 3.14824 119.865 3.57568 119.865 4.10556C119.865 4.10808 119.868 26.2662 119.868 26.2662H104.367V4.10556C104.367 3.57568 104.001 3.14824 103.546 3.14824H93.6022C93.1497 3.14824 92.7807 3.57568 92.7807 4.10556V64.1098C92.7807 64.6392 93.1497 65.0701 93.6022 65.0701H103.546C104.001 65.0701 104.367 64.6392 104.367 64.1098V38.4439H119.868C119.868 38.4439 119.841 64.1078 119.841 64.1098C119.841 64.6392 120.21 65.0701 120.664 65.0701H130.633C131.088 65.0701 131.452 64.6392 131.453 64.1098V4.10556ZM59.2147 12.128C59.2147 7.99893 56.3437 4.66219 52.8019 4.66219C49.2635 4.66219 46.3904 7.99893 46.3904 12.128C46.3904 16.2525 49.2635 19.5983 52.8019 19.5983C56.3437 19.5983 59.2147 16.2525 59.2147 12.128ZM58.4256 51.4835V23.7853C58.4256 23.2595 58.0575 22.8295 57.6028 22.8295H47.6897C47.235 22.8295 46.828 23.3705 46.828 23.8964V63.5794C46.828 64.7456 47.4582 65.0923 48.274 65.0923H57.2055C58.1853 65.0923 58.4256 64.5377 58.4256 63.5607V51.4835ZM169.461 22.8295H159.592C159.14 22.8295 158.771 23.2595 158.771 23.7889V53.2109C158.771 53.2109 156.265 55.3259 152.706 55.3259C149.148 55.3259 148.204 53.4642 148.204 49.4467V23.7889C148.204 23.2595 147.836 22.8295 147.383 22.8295H137.368C136.915 22.8295 136.545 23.2595 136.545 23.7889V51.3896C136.545 63.3225 142.313 66.2419 150.247 66.2419C156.757 66.2419 162.005 62.0952 162.005 62.0952C162.005 62.0952 162.255 64.2804 162.368 64.5397C162.481 64.7981 162.775 65.059 163.094 65.059L169.465 65.0267C169.917 65.0267 170.288 64.5958 170.288 64.0689L170.285 23.7889C170.285 23.2595 169.916 22.8295 169.461 22.8295ZM192.198 55.3486C188.775 55.2285 186.453 53.4375 186.453 53.4375V34.4354C186.453 34.4354 188.744 32.8165 191.554 32.5269C195.108 32.16 198.532 33.3979 198.532 43.1729C198.532 53.4809 196.987 55.5151 192.198 55.3486ZM196.09 21.5407C190.485 21.5407 186.673 24.4242 186.673 24.4242V4.10556C186.673 3.57568 186.306 3.14824 185.853 3.14824H175.88C175.426 3.14824 175.058 3.57568 175.058 4.10556V64.1098C175.058 64.6392 175.426 65.0701 175.881 65.0701H182.8C183.112 65.0701 183.348 64.8849 183.522 64.5604C183.694 64.238 183.942 61.794 183.942 61.794C183.942 61.794 188.02 66.25 195.74 66.25C204.803 66.25 210 60.9492 210 42.4533C210 23.9574 201.699 21.5407 196.09 21.5407ZM87.0471 22.7266H79.5875C79.5875 22.7266 79.5761 11.3654 79.5761 11.3629C79.5761 10.933 79.384 10.718 78.9529 10.718H68.7873C68.3921 10.718 68.1798 10.9183 68.1798 11.3564V23.0995C68.1798 23.0995 63.0856 24.5176 62.7412 24.6321C62.3981 24.7467 62.1456 25.1116 62.1456 25.5466V32.926C62.1456 33.4569 62.5132 33.8849 62.9679 33.8849H68.1798V51.6374C68.1798 64.8234 76.201 66.1188 81.6138 66.1188C84.0869 66.1188 87.0454 65.2029 87.5338 64.9949C87.8292 64.8698 88.0008 64.517 88.0008 64.1345L88.0091 56.0167C88.0091 55.4874 87.6213 55.0589 87.1846 55.0589C86.75 55.0589 85.6379 55.2628 84.493 55.2628C80.8291 55.2628 79.5875 53.2982 79.5875 50.7553C79.5875 48.2144 79.5871 33.8849 79.5871 33.8849H87.0471C87.5019 33.8849 87.8699 33.4569 87.8699 32.926V23.6829C87.8699 23.1535 87.5019 22.7266 87.0471 22.7266Z" fill="#C6C6C6"/>
</svg>
