<svg width="210" height="67" viewBox="0 0 210 67" fill="none" xmlns="http://www.w3.org/2000/svg">
<path fill-rule="evenodd" clip-rule="evenodd" d="M114.007 20.726H127.518C126.57 3.42698 114.481 0.5435 108.556 0.903253C102.631 1.26482 91.9649 2.70565 91.254 19.6449C90.7808 30.8154 96.4685 34.422 101.445 38.025C103.816 39.8274 107.608 42.3511 109.268 43.0706C114.719 46.6754 112.111 52.0808 107.845 52.0808C103.343 52.4424 100.735 48.476 100.735 45.5944H87.4602C87.6968 63.6147 100.022 66.5 107.607 66.5C115.428 66.5 126.331 61.4544 125.857 45.5944C125.619 34.0605 118.746 30.4575 114.241 27.2125C109.501 23.9692 104.287 23.2479 104.524 18.562C104.763 13.5164 113.769 13.5164 114.007 20.726ZM32.2346 2.70566L30.3383 23.9692H17.302L19.4361 2.70566H5.68888L0 64.3342H13.5107L15.6435 41.2682H28.6798L26.3091 64.3342H40.2942L46.2196 2.70566H32.2346ZM49.0635 2.70566H63.0473C63.0473 2.70566 59.9657 34.7818 59.4913 41.2682C58.7804 47.7547 61.151 51.7192 65.1802 51.7192C69.2094 52.0808 72.0532 47.3968 72.5276 41.2682C73.4752 32.2599 76.3202 2.70566 76.3202 2.70566H90.3052C90.3052 2.70566 87.9357 27.2125 86.7492 41.2682C85.5651 53.5216 82.9566 66.1384 65.4168 66.5C45.9807 66.5 45.0331 46.3157 45.5075 40.9103C45.9819 36.9458 49.0635 2.70566 49.0635 2.70566ZM210 2.70566H194.356L185.825 23.9692L180.373 2.70566H157.856L143.872 22.8881L145.767 2.70566H132.257L126.57 64.3342H139.842L141.264 48.1163L146.242 41.9877L153.353 64.3342H169.234L155.959 28.2935L168.049 10.9945L178.002 41.2682L175.632 64.3342H189.616L191.511 42.7127L210 2.70566Z" fill="#C6C6C6"/>
</svg>
