<svg width="201" height="24" viewBox="0 0 201 24" fill="none" xmlns="http://www.w3.org/2000/svg">
<path d="M4.00098 3H20.001C20.5533 3 21.001 3.44772 21.001 4V20C21.001 20.5523 20.5533 21 20.001 21H4.00098C3.44869 21 3.00098 20.5523 3.00098 20V4C3.00098 3.44772 3.44869 3 4.00098 3ZM5.00098 5V19H19.001V5H5.00098ZM7.50098 9C6.67255 9 6.00098 8.32843 6.00098 7.5C6.00098 6.67157 6.67255 6 7.50098 6C8.3294 6 9.00098 6.67157 9.00098 7.5C9.00098 8.32843 8.3294 9 7.50098 9ZM6.50098 10H8.50098V17.5H6.50098V10ZM12.001 10.4295C12.5854 9.86534 13.2665 9.5 14.001 9.5C16.072 9.5 17.501 11.1789 17.501 13.25V17.5H15.501V13.25C15.501 12.2835 14.7175 11.5 13.751 11.5C12.7845 11.5 12.001 12.2835 12.001 13.25V17.5H10.001V10H12.001V10.4295Z" fill="white"/>
<path d="M67 2H60L68.2609 13.0145L60.4499 21.9999H63.1L69.4883 14.651L75 22H82L73.3917 10.5223L80.8001 2H78.1501L72.1643 8.88578L67 2ZM76 20L64 4H66L78 20H76Z" fill="white"/>
<path d="M130.001 9C128.344 9 127.001 10.3431 127.001 12C127.001 13.6573 128.344 15 130.001 15C131.658 15 133.001 13.6569 133.001 12C133.001 10.3427 131.658 9 130.001 9ZM130.001 7C132.761 7 135.001 9.2371 135.001 12C135.001 14.7605 132.764 17 130.001 17C127.241 17 125.001 14.7629 125.001 12C125.001 9.23953 127.238 7 130.001 7ZM136.501 6.74915C136.501 7.43926 135.94 7.99917 135.251 7.99917C134.561 7.99917 134.001 7.4384 134.001 6.74915C134.001 6.0599 134.562 5.5 135.251 5.5C135.939 5.49913 136.501 6.0599 136.501 6.74915ZM130.001 4C127.526 4 127.123 4.00655 125.972 4.0578C125.188 4.09461 124.663 4.20007 124.174 4.38967C123.74 4.55799 123.427 4.75898 123.094 5.09255C122.759 5.4274 122.558 5.73963 122.39 6.17383C122.2 6.66332 122.095 7.18811 122.059 7.97115C122.007 9.0752 122.001 9.46105 122.001 12C122.001 14.4745 122.008 14.8778 122.059 16.0286C122.096 16.8124 122.201 17.3388 122.39 17.826C122.559 18.2606 122.76 18.5744 123.092 18.9064C123.429 19.2421 123.742 19.4434 124.172 19.6094C124.666 19.8005 125.191 19.9061 125.972 19.9422C127.076 19.9939 127.462 20 130.001 20C132.475 20 132.879 19.9934 134.03 19.9422C134.812 19.9055 135.338 19.7996 135.827 19.6106C136.26 19.4423 136.575 19.2402 136.907 18.9085C137.244 18.5718 137.444 18.2594 137.611 17.8283C137.801 17.3358 137.907 16.8098 137.943 16.0289C137.995 14.9248 138.001 14.5389 138.001 12C138.001 9.52552 137.994 9.12221 137.943 7.97137C137.906 7.18906 137.8 6.66149 137.611 6.17318C137.443 5.74038 137.242 5.42635 136.908 5.09255C136.573 4.75715 136.262 4.55693 135.827 4.38942C135.338 4.19954 134.812 4.09396 134.03 4.05781C132.926 4.00605 132.54 4 130.001 4ZM130.001 2C132.718 2 133.057 2.01 134.123 2.06C135.188 2.10917 135.913 2.2775 136.551 2.525C137.21 2.77917 137.767 3.1225 138.323 3.67833C138.878 4.23417 139.221 4.7925 139.476 5.45C139.723 6.08667 139.891 6.81333 139.941 7.8775C139.988 8.94417 140.001 9.28333 140.001 12C140.001 14.7167 139.991 15.0558 139.941 16.1225C139.892 17.1867 139.723 17.9125 139.476 18.55C139.222 19.2092 138.878 19.7658 138.323 20.3217C137.767 20.8767 137.208 21.22 136.551 21.475C135.913 21.7217 135.188 21.89 134.123 21.94C133.057 21.9875 132.718 22 130.001 22C127.284 22 126.945 21.99 125.878 21.94C124.814 21.8908 124.089 21.7217 123.451 21.475C122.793 21.2208 122.235 20.8767 121.679 20.3217C121.123 19.7658 120.781 19.2067 120.526 18.55C120.278 17.9125 120.111 17.1867 120.061 16.1225C120.013 15.0558 120.001 14.7167 120.001 12C120.001 9.28333 120.011 8.94417 120.061 7.8775C120.11 6.8125 120.278 6.0875 120.526 5.45C120.78 4.79167 121.123 4.23417 121.679 3.67833C122.235 3.1225 122.793 2.78 123.451 2.525C124.088 2.2775 124.813 2.11 125.878 2.06C126.945 2.0125 127.284 2 130.001 2Z" fill="white"/>
<path d="M184.443 5.3501C185.082 5.3501 185.672 5.39957 186.213 5.54798C186.754 5.64692 187.197 5.8448 187.59 6.09215C187.984 6.3395 188.279 6.68578 188.475 7.13101C188.672 7.57624 188.771 8.12041 188.771 8.71405C188.771 9.40663 188.623 10.0003 188.279 10.4455C187.984 10.8907 187.492 11.2865 186.902 11.5833C187.738 11.8306 188.377 12.2759 188.771 12.8695C189.164 13.4631 189.41 14.2052 189.41 15.0462C189.41 15.7388 189.262 16.3324 189.016 16.8271C188.771 17.3218 188.377 17.767 187.934 18.0639C187.492 18.3607 186.951 18.608 186.361 18.7564C185.77 18.9048 185.18 19.0038 184.59 19.0038H178V5.3501H184.443ZM184.049 10.8907C184.59 10.8907 185.033 10.7423 185.377 10.495C185.721 10.2476 185.869 9.80239 185.869 9.25822C185.869 8.9614 185.82 8.66458 185.721 8.4667C185.623 8.26882 185.475 8.12041 185.279 7.972C185.082 7.87306 184.885 7.77412 184.639 7.72465C184.393 7.67518 184.148 7.67518 183.852 7.67518H181V10.8907H184.049ZM184.197 16.7282C184.492 16.7282 184.787 16.6787 185.033 16.6292C185.279 16.5798 185.525 16.4808 185.721 16.3324C185.918 16.184 186.066 16.0356 186.213 15.7882C186.311 15.5409 186.41 15.2441 186.41 14.8978C186.41 14.2052 186.213 13.7105 185.82 13.3642C185.426 13.0674 184.885 12.919 184.246 12.919H181V16.7282H184.197ZM193.688 16.6787C194.082 17.0745 194.672 17.2723 195.459 17.2723C196 17.2723 196.492 17.1239 196.885 16.8766C197.279 16.5798 197.525 16.2829 197.623 15.9861H200.033C199.639 17.1734 199.049 18.0144 198.262 18.5586C197.475 19.0533 196.541 19.3501 195.41 19.3501C194.623 19.3501 193.934 19.2017 193.295 18.9543C192.656 18.707 192.164 18.3607 191.721 17.866C191.279 17.4207 190.934 16.8766 190.738 16.2335C190.492 15.5904 190.393 14.8978 190.393 14.1063C190.393 13.3642 190.492 12.6716 190.738 12.0285C190.984 11.3854 191.328 10.8412 191.771 10.3465C192.213 9.90133 192.754 9.50557 193.344 9.25822C193.984 9.01087 194.623 8.86246 195.41 8.86246C196.246 8.86246 196.984 9.01087 197.623 9.35716C198.262 9.70345 198.754 10.0992 199.147 10.6928C199.541 11.237 199.836 11.8801 200.033 12.5727C200.131 13.2653 200.18 13.9578 200.131 14.7494H193C193 15.5409 193.295 16.2829 193.688 16.6787ZM196.787 11.4844C196.443 11.1381 195.902 10.9402 195.262 10.9402C194.82 10.9402 194.475 11.0391 194.18 11.1875C193.885 11.3359 193.689 11.5338 193.492 11.7317C193.295 11.9296 193.197 12.1769 193.147 12.4243C193.098 12.6716 193.049 12.8695 193.049 13.0674H197.475C197.377 12.3253 197.131 11.8306 196.787 11.4844ZM192.459 6.29002H197.967V7.62571H192.459V6.29002Z" fill="white"/>
</svg>
