<svg width="210" height="66" viewBox="0 0 210 66" fill="none" xmlns="http://www.w3.org/2000/svg">
<path d="M32.6711 0.25C14.6277 0.25 0 14.9409 0 33.0627C0 51.1853 14.6277 65.875 32.6711 65.875C50.7163 65.875 65.3425 51.1853 65.3425 33.0627C65.3425 14.9421 50.7163 0.251567 32.6707 0.251567L32.6711 0.25ZM47.6538 47.5753C47.0686 48.5392 45.8124 48.8449 44.8526 48.2532C37.1818 43.5473 27.5252 42.4815 16.1527 45.0911C15.0569 45.3419 13.9645 44.6523 13.7148 43.5512C13.4639 42.4502 14.1478 41.3531 15.2465 41.1023C27.6918 38.2466 38.367 39.4762 46.9789 44.762C47.9386 45.3536 48.2429 46.6114 47.6538 47.5753ZM51.6527 38.6408C50.9153 39.8445 49.347 40.2246 48.1493 39.484C39.3673 34.0626 25.9806 32.4926 15.5933 35.6594C14.2462 36.068 12.8233 35.3055 12.4145 33.9549C12.0087 32.6019 12.7683 31.1756 14.1131 30.7642C25.9783 27.1484 40.7289 28.8999 50.8139 35.1241C52.0116 35.8647 52.39 37.4394 51.6527 38.6408ZM51.996 29.3372C41.4662 23.0557 24.0935 22.4782 14.0402 25.5427C12.4258 26.0344 10.7186 25.1191 10.2293 23.4977C9.7401 21.8755 10.6507 20.1621 12.2662 19.6691C23.8068 16.1505 42.9917 16.8303 55.1147 24.0584C56.5699 24.924 57.0459 26.8075 56.1837 28.2639C55.3254 29.7223 53.4449 30.2031 51.9975 29.3372H51.996ZM88.8871 30.5409C83.2458 29.1898 82.2431 28.2416 82.2431 26.2491C82.2431 24.3668 84.0065 23.1 86.6321 23.1C89.1758 23.1 91.6961 24.062 94.3412 26.0423C94.4192 26.1022 94.5207 26.1261 94.6182 26.1104C94.7196 26.0956 94.8055 26.0411 94.864 25.9592L97.6183 22.0597C97.7315 21.899 97.7003 21.6777 97.5481 21.555C94.3997 19.0187 90.8573 17.7856 86.7141 17.7856C80.6241 17.7856 76.3677 21.4567 76.3677 26.7092C76.3677 32.3417 80.0389 34.3361 86.3825 35.8757C91.778 37.1244 92.6909 38.1706 92.6909 40.0404C92.6909 42.1132 90.8495 43.4023 87.8845 43.4023C84.5917 43.4023 81.9037 42.2856 78.8997 39.676C78.8256 39.6094 78.7241 39.582 78.6305 39.5859C78.529 39.5937 78.4393 39.6408 78.3769 39.7152L75.287 43.4062C75.1583 43.563 75.1739 43.7902 75.3221 43.9235C78.8177 47.0581 83.117 48.7116 87.7596 48.7116C94.3217 48.7116 98.5625 45.1107 98.5625 39.535C98.5742 34.8302 95.7691 32.2246 88.8988 30.546L88.8871 30.5409ZM113.411 24.9534C110.567 24.9534 108.234 26.0787 106.307 28.3846V25.7891C106.307 25.5842 106.143 25.4173 105.94 25.4173H100.888C100.685 25.4173 100.521 25.5842 100.521 25.7891V54.6283C100.521 54.832 100.685 55.0005 100.888 55.0005H105.94C106.143 55.0005 106.307 54.832 106.307 54.6283V45.5261C108.234 47.6929 110.567 48.7547 113.411 48.7547C118.697 48.7547 124.05 44.6679 124.05 36.8552C124.058 29.0409 118.705 24.953 113.415 24.953L113.411 24.9534ZM118.175 36.8552C118.175 40.8319 115.736 43.61 112.241 43.61C108.788 43.61 106.182 40.7065 106.182 36.8552C106.182 33.0035 108.788 30.1008 112.241 30.1008C115.678 30.1005 118.175 32.9408 118.175 36.8552ZM137.763 24.9534C130.955 24.9534 125.622 30.218 125.622 36.9403C125.622 43.5904 130.92 48.7978 137.681 48.7978C144.513 48.7978 149.861 43.5512 149.861 36.8552C149.861 30.182 144.548 24.9541 137.763 24.9541V24.9534ZM137.763 43.6492C134.143 43.6492 131.412 40.7261 131.412 36.8533C131.412 32.9628 134.049 30.1396 137.681 30.1396C141.325 30.1396 144.072 33.0615 144.072 36.9383C144.072 40.828 141.419 43.6492 137.763 43.6492ZM164.398 25.4173H158.838V19.7099C158.838 19.5054 158.674 19.3384 158.472 19.3384H153.419C153.216 19.3384 153.049 19.5054 153.049 19.7099V25.4173H150.622C150.419 25.4173 150.255 25.5842 150.255 25.7891V30.149C150.255 30.3536 150.419 30.5209 150.622 30.5209H153.049V41.8037C153.049 46.3607 155.308 48.6725 159.767 48.6725C161.577 48.6725 163.079 48.2963 164.495 47.4891C164.612 47.4264 164.683 47.301 164.683 47.1678V43.0144C164.683 42.889 164.616 42.7676 164.507 42.701C164.398 42.6304 164.261 42.6265 164.148 42.6853C163.177 43.1751 162.236 43.4023 161.183 43.4023C159.564 43.4023 158.838 42.6618 158.838 41.0082V30.5229H164.398C164.601 30.5229 164.764 30.3559 164.764 30.151V25.7915C164.772 25.5866 164.608 25.4196 164.402 25.4196L164.398 25.4173ZM183.764 25.4396V24.7386C183.764 22.6764 184.552 21.7568 186.315 21.7568C187.369 21.7568 188.215 21.9668 189.163 22.2842C189.281 22.321 189.401 22.3026 189.495 22.2325C189.593 22.1624 189.647 22.0499 189.647 21.9308V17.6559C189.647 17.4925 189.546 17.3479 189.386 17.2997C188.387 17.0008 187.107 16.694 185.188 16.694C180.526 16.694 178.056 19.3326 178.056 24.3217V25.3954H175.63C175.427 25.3954 175.259 25.5623 175.259 25.7668V30.149C175.259 30.3536 175.427 30.5209 175.63 30.5209H178.056V47.9201C178.056 48.1278 178.224 48.2924 178.427 48.2924H183.475C183.682 48.2924 183.846 48.1278 183.846 47.9201V30.5221H188.563L195.788 47.9201C194.969 49.7461 194.161 50.1105 193.061 50.1105C192.171 50.1105 191.231 49.844 190.275 49.3151C190.186 49.268 190.076 49.2602 189.983 49.2876C189.885 49.3229 189.803 49.3934 189.764 49.4875L188.052 53.2608C187.97 53.441 188.04 53.6487 188.212 53.7427C189.998 54.7145 191.61 55.1298 193.603 55.1298C197.333 55.1298 199.397 53.3823 201.211 48.6881L209.973 25.9474C210.02 25.833 210.004 25.7037 209.934 25.6022C209.868 25.5015 209.755 25.4408 209.634 25.4408H204.375C204.215 25.4408 204.074 25.5415 204.024 25.69L198.636 41.1415L192.737 25.6798C192.682 25.536 192.546 25.4408 192.394 25.4408H183.764V25.4396ZM172.536 25.4173H167.484C167.281 25.4173 167.113 25.5842 167.113 25.7891V47.9201C167.113 48.1278 167.281 48.2924 167.484 48.2924H172.536C172.739 48.2924 172.907 48.1278 172.907 47.9201V25.7907C172.907 25.5858 172.743 25.4189 172.536 25.4189V25.4173ZM170.039 15.3398C168.038 15.3398 166.415 16.9667 166.415 18.9764C166.415 20.9873 168.038 22.6161 170.039 22.6161C172.04 22.6161 173.66 20.9873 173.66 18.9764C173.66 16.9671 172.037 15.3398 170.039 15.3398Z" fill="#C6C6C6"/>
</svg>
